<?xml version="1.0" encoding="UTF-8" standalone="no"?><!DOCTYPE svg PUBLIC "-//W3C//DTD SVG 1.1//EN" "http://www.w3.org/Graphics/SVG/1.1/DTD/svg11.dtd"><svg width="100%" height="100%" viewBox="0 0 128 128" version="1.1" xmlns="http://www.w3.org/2000/svg" xmlns:xlink="http://www.w3.org/1999/xlink" xml:space="preserve" xmlns:serif="http://www.serif.com/" style="fill-rule:evenodd;clip-rule:evenodd;stroke-linejoin:round;stroke-miterlimit:2;"><g><path d="M114,22c0,-4.415 -3.585,-8 -8,-8l-84,0c-4.415,0 -8,3.585 -8,8l0,84c0,4.415 3.585,8 8,8l84,0c4.415,0 8,-3.585 8,-8l0,-84Z" style="fill:#77767b;"/><path d="M114,42c0,-4.415 -3.585,-8 -8,-8l-84,0c-4.415,0 -8,3.585 -8,8l0,56c0,4.415 3.585,8 8,8l84,0c4.415,0 8,-3.585 8,-8l0,-56Z" style="fill:#c0bfbc;"/></g><g><rect x="28" y="42" width="72" height="40" style="fill:#241f31;"/><g><path d="M36,81.96c0.01,-15.433 12.553,-27.96 28,-27.96c15.447,-0 27.99,12.527 28,27.96l-56,-0Z" style="fill:#1c71d8;"/><path d="M46.718,60l1.308,0c2.196,0.014 3.974,1.801 3.974,4l0,0c0.011,2.198 1.799,3.98 4,3.98c2.208,-0 4,1.792 4,4c-0,2.199 -1.778,3.986 -3.974,4l-0.026,-0c-2.208,-0 -4,1.792 -4,4c-0,0.734 0.198,1.422 0.6,1.98l-9.2,-0c0.402,-0.558 0.6,-1.246 0.6,-1.98c0,-2.208 -1.792,-4 -4,-4l-0.026,-0c-1.188,-0.008 -2.255,-0.535 -2.952,-1.392c1.589,-5.857 5.043,-10.949 9.696,-14.588Z" style="fill:#2ec27e;"/><path d="M52.07,56.699c3.61,-1.741 7.659,-2.699 11.93,-2.699c4.27,0 8.317,0.957 11.928,2.698c-0.332,1.866 -1.966,3.282 -3.928,3.282l0,0.02c-0.444,0.001 -0.886,0.073 -1.306,0.218c-0.556,0.192 -1.067,0.509 -1.488,0.92c-0.438,0.428 -0.776,0.956 -0.98,1.533c-0.147,0.419 -0.222,0.86 -0.226,1.303l-0,0.021c-0.008,2.201 -1.797,3.985 -4,3.985c-2.206,-0 -3.997,-1.789 -4,-3.995l-0,-0c-0.008,-2.201 -1.797,-3.985 -4,-3.985l-0.026,-0c-1.957,-0.012 -3.582,-1.433 -3.904,-3.301Z" style="fill:#2ec27e;"/><path d="M81.282,60c6.525,5.101 10.712,13.046 10.718,21.96l-24,-0l0,-9.986c0.014,-2.196 1.801,-3.974 4,-3.974l0.026,-0c2.196,-0.014 3.974,-1.801 3.974,-4l0,-0.026c0.014,-2.196 1.801,-3.974 4,-3.974l1.282,0Z" style="fill:#2ec27e;"/></g><g><rect x="44" y="50" width="8" height="8" style="fill:#f6f5f4;"/><rect x="44" y="58" width="8" height="8" style="fill:#241f31;"/></g><g><rect x="44" y="66" width="8" height="8" style="fill:#f6f5f4;"/><rect x="44" y="74" width="8" height="8" style="fill:#241f31;"/></g><g><rect x="52" y="58" width="8" height="8" style="fill:#f6f5f4;"/><rect x="52" y="66" width="8" height="8" style="fill:#241f31;"/></g><g><rect x="68" y="66" width="24" height="8" style="fill:#f6f5f4;"/><rect x="68" y="74" width="24" height="8" style="fill:#241f31;"/></g></g><rect x="28" y="89.96" width="30" height="8" style="fill:#241f31;"/><rect x="92" y="89.96" width="8" height="8" style="fill:#ed333b;"/></svg>